<?xml version="1.0" encoding="UTF-8" standalone="no"?>
<!-- Generator: Adobe Illustrator 19.0.0, SVG Export Plug-In . SVG Version: 6.00 Build 0)  -->

<svg
   version="1.1"
   id="Layer_1"
   x="0px"
   y="0px"
   viewBox="0 0 502.119 502.119"
   style="enable-background:new 0 0 502.119 502.119;"
   xml:space="preserve"
   width="512"
   height="512"
   sodipodi:docname="play-svgrepo-com.svg"
   inkscape:version="1.1.1 (3bf5ae0d25, 2021-09-20)"
   xmlns:inkscape="http://www.inkscape.org/namespaces/inkscape"
   xmlns:sodipodi="http://sodipodi.sourceforge.net/DTD/sodipodi-0.dtd"
   xmlns="http://www.w3.org/2000/svg"
   xmlns:svg="http://www.w3.org/2000/svg"><defs
   id="defs21">
	
	
	

		
		
	</defs><sodipodi:namedview
   id="namedview19"
   pagecolor="#ffffff"
   bordercolor="#999999"
   borderopacity="1"
   inkscape:pageshadow="0"
   inkscape:pageopacity="0"
   inkscape:pagecheckerboard="0"
   showgrid="false"
   inkscape:zoom="5.6568542"
   inkscape:cx="183.40582"
   inkscape:cy="277.6278"
   inkscape:window-width="1366"
   inkscape:window-height="705"
   inkscape:window-x="-8"
   inkscape:window-y="-8"
   inkscape:window-maximized="1"
   inkscape:current-layer="Layer_1" />
<g
   id="g1160"><circle
     style="fill:#ffffff;fill-opacity:1;stroke-width:0.0515912"
     id="path914"
     cx="183.83055"
     cy="255.23279"
     r="15.691219" /><g
     id="g880"
     transform="matrix(0.04714533,0,0,0.04714533,171.99429,243.3965)"><path
       style="fill:#e63946;fill-opacity:1"
       d="M 131.743,17.904 421.08,213.57 c 26.539,17.947 26.539,57.031 0,74.978 L 131.743,484.215 C 101.688,504.54 61.134,483.008 61.134,446.726 V 55.393 c 0,-36.282 40.554,-57.814 70.609,-37.489 z"
       id="path2" /><path
       d="m 106.489,502.119 c -8.834,0 -17.716,-2.185 -26.01,-6.589 -18.375,-9.756 -29.345,-28 -29.345,-48.804 V 55.393 c 0,-20.804 10.97,-39.048 29.345,-48.804 18.373,-9.756 39.634,-8.622 56.865,3.032 l 289.337,195.667 c 15.218,10.291 24.303,27.402 24.303,45.772 0,18.37 -9.085,35.481 -24.303,45.772 L 137.345,492.498 c -9.453,6.393 -20.119,9.621 -30.856,9.621 z M 106.454,20.05 c -5.637,0 -11.304,1.394 -16.596,4.204 -11.725,6.225 -18.724,17.866 -18.724,31.14 v 391.333 c 0,13.274 6.999,24.915 18.724,31.14 11.723,6.226 25.287,5.501 36.283,-1.935 L 415.478,280.265 c 9.854,-6.664 15.506,-17.309 15.506,-29.205 0,-11.896 -5.651,-22.541 -15.506,-29.205 L 126.142,26.188 C 120.109,22.109 113.304,20.05 106.454,20.05 Z"
       id="path4" /><g
       id="g10">
		<path
   d="m 351.051,216.06 c -1.932,0 -3.882,-0.558 -5.602,-1.723 l -16.236,-11.003 c -4.571,-3.098 -5.767,-9.316 -2.668,-13.888 3.1,-4.572 9.316,-5.765 13.889,-2.668 l 16.236,11.003 c 4.571,3.098 5.767,9.316 2.668,13.888 -1.934,2.853 -5.082,4.391 -8.287,4.391 z"
   id="path8" />
	</g><g
       id="g14">
		<path
   d="m 304.051,184.209 c -1.932,0 -3.882,-0.558 -5.602,-1.723 l -195,-132.149 c -4.571,-3.099 -5.767,-9.316 -2.668,-13.888 3.1,-4.572 9.316,-5.765 13.889,-2.668 l 195,132.149 c 4.571,3.099 5.767,9.316 2.668,13.888 -1.934,2.853 -5.082,4.391 -8.287,4.391 z"
   id="path12" />
	</g></g></g>















</svg>
